<?xml version="1.0" standalone="no"?>
<!DOCTYPE svg PUBLIC "-//W3C//DTD SVG 20010904//EN"
 "http://www.w3.org/TR/2001/REC-SVG-20010904/DTD/svg10.dtd">
<svg version="1.0" xmlns="http://www.w3.org/2000/svg"
 width="200.000000pt" height="200.000000pt" viewBox="0 0 200.000000 200.000000"
 preserveAspectRatio="xMidYMid meet">
<metadata>
Created by potrace 1.16, written by Peter Selinger 2001-2019
</metadata>
<g transform="translate(0.000000,200.000000) scale(0.100000,-0.100000)"
fill="#000000" stroke="none">
<path d="M168 1885 c-14 -8 -36 -30 -47 -49 -21 -34 -21 -36 -19 -770 l3 -736
38 -37 37 -38 483 -3 482 -2 -42 24 c-23 13 -62 38 -86 55 l-45 31 -373 2
-373 3 -13 25 c-17 33 -19 1320 -2 1368 6 17 20 32 32 36 12 3 196 6 410 6
l387 0 0 -117 c1 -200 30 -233 209 -233 l101 0 0 -69 0 -68 39 -7 c22 -3 46
-9 55 -12 14 -5 16 8 16 114 l0 120 -170 186 -171 186 -462 0 c-383 -1 -467
-3 -489 -15z"/>
<path d="M324 1466 c-3 -8 -4 -23 -2 -33 3 -17 20 -18 257 -18 223 0 255 2
264 16 6 9 7 24 4 33 -6 14 -35 16 -262 16 -213 0 -257 -2 -261 -14z"/>
<path d="M324 1296 c-3 -8 -4 -23 -2 -33 3 -17 20 -18 257 -18 223 0 255 2
264 16 6 9 7 24 4 33 -6 14 -35 16 -262 16 -213 0 -257 -2 -261 -14z"/>
<path d="M1148 1211 c-226 -74 -353 -305 -293 -534 21 -83 50 -133 112 -198
126 -132 333 -173 502 -98 24 11 47 16 51 12 4 -5 61 -70 128 -145 132 -147
155 -162 210 -134 34 17 42 34 42 81 0 37 -3 40 -140 195 -127 144 -117 120
-82 190 100 199 49 431 -123 562 -76 58 -144 81 -255 85 -73 2 -108 -1 -152
-16z m267 -155 c224 -110 224 -419 0 -539 -58 -31 -202 -31 -260 0 -177 95
-224 320 -96 466 92 104 233 133 356 73z"/>
<path d="M1231 997 c-59 -30 -83 -111 -51 -172 42 -78 182 -72 216 10 18 44
18 69 -1 109 -28 58 -106 83 -164 53z"/>
<path d="M1140 749 c-48 -14 -70 -42 -70 -93 0 -49 26 -79 100 -117 34 -17 61
-23 115 -23 80 1 124 16 178 64 33 28 37 37 37 79 0 33 -5 53 -17 64 -23 19
-103 41 -113 30 -4 -4 -15 -30 -25 -58 -27 -74 -38 -79 -32 -15 3 43 1 57 -12
67 -21 15 -54 -11 -43 -36 4 -9 5 -34 2 -55 l-5 -39 -25 71 c-26 77 -28 78
-90 61z"/>
<path d="M324 1126 c-3 -8 -4 -23 -2 -33 3 -17 20 -18 257 -18 223 0 255 2
264 16 6 9 7 24 4 33 -6 14 -35 16 -262 16 -213 0 -257 -2 -261 -14z"/>
</g>
</svg>
