<?xml version="1.0" standalone="no"?>
<!DOCTYPE svg PUBLIC "-//W3C//DTD SVG 20010904//EN"
 "http://www.w3.org/TR/2001/REC-SVG-20010904/DTD/svg10.dtd">
<svg version="1.0" xmlns="http://www.w3.org/2000/svg"
 width="512.000000pt" height="512.000000pt" viewBox="0 0 512.000000 512.000000"
 preserveAspectRatio="xMidYMid meet">
<metadata>
Created by potrace 1.16, written by Peter Selinger 2001-2019
</metadata>
<g transform="translate(0.000000,512.000000) scale(0.100000,-0.100000)"
fill="#000000" stroke="none">
<path d="M1214 5096 c-83 -30 -122 -56 -181 -119 -95 -100 -123 -182 -123
-357 l0 -127 -132 -6 c-136 -7 -193 -19 -268 -57 -60 -30 -134 -103 -175 -170
-69 -114 -65 22 -65 -2005 0 -2002 -3 -1886 57 -1997 62 -114 199 -208 334
-229 39 -6 446 -8 1057 -7 l993 3 -56 65 c-62 71 -125 158 -168 232 l-28 48
-879 2 c-874 3 -879 3 -907 24 -15 11 -34 32 -40 45 -10 19 -13 413 -13 1812
0 1944 -4 1823 54 1861 23 15 132 16 1286 16 1171 0 1263 -1 1287 -17 54 -36
53 -20 53 -853 0 -423 2 -770 5 -770 3 0 38 9 78 20 59 17 231 50 260 50 4 0
7 342 7 761 0 845 1 830 -66 941 -36 59 -117 138 -168 165 -16 8 -54 25 -85
36 -56 22 -64 22 -1063 25 l-1008 3 0 95 c0 65 5 104 15 124 33 64 -49 60
1324 60 923 0 1257 -3 1275 -12 14 -6 34 -23 43 -37 17 -24 18 -95 23 -1095
l5 -1070 80 -13 c44 -7 117 -25 161 -38 45 -14 87 -25 93 -25 15 0 16 2193 1
2271 -13 70 -58 163 -104 215 -46 54 -131 110 -203 135 -55 18 -94 19 -1377
18 l-1321 0 -61 -23z"/>
<path d="M1232 3473 c-86 -42 -119 -160 -68 -247 17 -30 40 -51 69 -65 42 -21
55 -21 573 -21 493 0 532 2 570 19 129 59 137 241 13 310 -36 20 -50 21 -580
21 -483 0 -548 -2 -577 -17z"/>
<path d="M1228 2710 c-54 -29 -81 -73 -86 -141 -6 -77 27 -137 91 -168 43 -21
53 -21 727 -21 674 0 684 0 727 21 120 58 125 240 8 306 l-40 23 -695 -1
c-668 0 -696 -1 -732 -19z"/>
<path d="M3659 2139 c-140 -15 -262 -53 -396 -124 -493 -261 -700 -886 -463
-1393 138 -293 384 -503 690 -587 118 -33 336 -45 457 -25 223 35 414 132 580
293 223 216 332 492 320 807 -6 168 -36 293 -106 435 -165 337 -483 557 -860
595 -113 11 -112 11 -222 -1z m305 -573 c180 -50 357 -159 530 -326 132 -128
148 -156 121 -207 -27 -49 -205 -218 -303 -286 -359 -252 -692 -257 -1047 -17
-95 65 -218 172 -282 248 -43 50 -53 69 -53 98 0 33 10 47 113 148 195 194
381 306 582 350 86 19 254 15 339 -8z"/>
<path d="M3631 1409 c-149 -38 -301 -130 -459 -277 l-63 -58 78 -75 c137 -131
287 -223 433 -265 99 -28 242 -24 345 10 141 48 272 131 415 265 l65 61 -79
74 c-191 182 -411 287 -598 285 -35 0 -96 -9 -137 -20z m256 -112 c42 -22 90
-71 112 -116 65 -127 5 -282 -131 -341 -134 -58 -302 28 -333 170 -27 122 27
233 140 287 41 20 62 23 115 20 36 -2 79 -11 97 -20z"/>
<path d="M1225 1947 c-116 -65 -113 -245 5 -304 l44 -23 557 0 556 0 50 103
c28 56 71 132 97 170 25 37 46 69 46 72 0 3 -296 5 -657 5 l-658 0 -40 -23z"/>
<path d="M1229 1187 c-63 -34 -91 -85 -87 -162 4 -72 31 -116 88 -145 38 -19
61 -20 555 -20 l516 0 -8 38 c-4 20 -7 99 -7 175 l0 137 -506 0 -507 0 -44
-23z"/>
</g>
</svg>
